<mxfile host="Electron" agent="Mozilla/5.0 (X11; Linux x86_64) AppleWebKit/537.36 (KHTML, like Gecko) draw.io/24.7.5 Chrome/126.0.6478.183 Electron/31.3.0 Safari/537.36" version="24.7.5">
  <diagram name="Page-1" id="ltP1NZWhN0KxLHJjI23I">
    <mxGraphModel dx="2200" dy="829" grid="1" gridSize="10" guides="1" tooltips="1" connect="1" arrows="1" fold="1" page="1" pageScale="1" pageWidth="850" pageHeight="1100" math="0" shadow="0">
      <root>
        <mxCell id="0" />
        <mxCell id="1" parent="0" />
        <mxCell id="Ua7MzMNx5tIf73Vf3fs6-1" value="" style="shape=image;verticalLabelPosition=bottom;labelBackgroundColor=default;verticalAlign=top;aspect=fixed;imageAspect=0;image=data:image/png,iVBORw0KGgoAAAANSUhEUgAAAQ8AAABbCAYAAABtRwBrAAAABHNCSVQICAgIfAhkiAAAF01JREFUeF7tXQd4VFXTniSkEBICISAQUHooH0Xah9QA0lREfRBQ+ARpip+UiKhgQewCIipFQAWR8NFEeoeAQDAUQ++E/IlAkJaQQgrJ/u/cZHGzJdkku3fbzPPkgb333HPOfe/d2XNm3plx00BIRBAQBApFICMpiTb+979UrkYNajZkCJ1YupTKBgfTncuXqcsnnxR6vbM1cHe2G5L7EQSshYB3QAAF1a9PlZs1ozKVKlHb8ePp0WHDKGb7dtLk5FhrWLvtt5TdzkwmJgjYMQLeZcsqs8u5f598ypcnN3fX+x12vTu24xdSpuZ4CByaPZu6fvqp403cAjOWlYcFQJQunB8B3pbcT08ngomQtywsx5csoWpt2lCVFi2cHwAjdygrDyOgyCFBQB+BzJQUivjgA8rOylIUxqWtW+ngrFkU9d13tHrQIEq5dk3/Eqf/7CbeFqd/xnKDgoBVEJBti1VglU6dEwE3K9yW4zIlZNtihddBunRmBPjL/s/f5Z07aFFop3zHdM9HTptKJ8KX0JaxY+jG6VN67RwbJ1Eejv38ZPY2RoCNpe6lTC/gGw8cSPxXq1s3Or1ypY1na9nhRXlYFk/pzcUQ8ClX7sEdZ9y9S8ufe47OrV1Lu957j26dP0/+Vasq529fvEhVmjd3KnREeTjV45SbsSUCTBx7+ocfKPKrr6j+M89QhXr1lOmk/v03JV+5QvV697bl9Cw+tigPi0MqHboyAtmZmRTcqhVd2LRJgYFduEcXLaKun3/udLCY3qw53a3KDQkClkeA+R6p16/T+Q0blJiXqG++oW5Tp9LCTp2o+mOP0b4vviC/ypVpDQLp+HMrBNYVJNcWLKCcjAzyKFOGcqCIArt3p+NPPknBr79OlJ1NyUeOUPDo0eSfR0y7e+AAnQHPpPXZs+Tm6VlQ1xY/59A8j7XYW/7888/k7+9P7dq1oxUrVtCWLVto27ZttGPHDpoxY0Y+wBITE+mVV15R2nfo0IFa4AEMGDCA2rdvT3fu3KHXXnuNOuGh54BN2KBBA/r222+pR48eFgddOnRUBNhVa0nXqmF/0R07UlO8u+5eXpQeF0c+Dz9M0Xg/G0M5lYJ9JROK6ljXrtTizz+VNlfnz6eM+Hjyx2on6OmnVQXWYVceKWD8fQMtz0rCHUFJnFmAlcfVq1dpFph/a9asMQDy6NGjVLt2bfrss8+UcydPnqTQ0FClfRaYg126dKE9e/bQxo0baRiiJRcvXizKwwBF1zzwx8yZ1GYc0RQ3y3A9vPz8aGKyIZa80jiMFUyV4cMpGD9m+uL10EPkXa0a3YMB1jckhDxKl6bKWNVcnjRJlIc+WKY+x8TEKKsDVhwsbnkPlVcSEyZMIC9oZX3hVcXhw4fpxRdfpJdeeomq4SFoxRNLvurVqyvKZxH2qD/A8DV27Fi6AkNXMHI2iLg2ArwlYZlsgfQ3sbt3054pU9DbbgNQH4GXplL//hQ/fTqdf/VVqo930UDwrnMUb2JEBGXdvElJe/dS6unTdB/5RkohbYBa4rAG0xpIyHLs2DFli8HCKweW9evXK9uVmwBVX7KxZ3zzzTfpl19+UVYtunIfodXxWP5xP2exf/zyyy8pA3tPViIi/yCQnJxJR48muDwkbBi9eugQnVq+3KJYsA2jdN26VG/ePMrAD5e+5CA4L+vGDSqNFTSvPqqFhSkrj8r4MbyxapV+c6t+dthtS1m4xV6HEek5+NUrIcqR7RcsAdC8M7HEfBVaeyVIOdoVCZ87ePAgfYdAJg8PD2XlwbIbvwLclm0eH3/8Mf3000+KYnn88ccVxdS5c2d6D78GfI2ry9ixW2ju3EPA249CQirQzp25GLoiLuG9elE6funT8EX+Ez8wffDelMXKVVf4Byk8PFx5xxYuXGgWTNfQV9q5c8oqgo2k97DCzrp1i67jB8/dx0c5V3fOHEqGzSNp/36qhJU220Lc2P4xdy4FtG1LvliRqyEOazDdvTu2UHyWLp2br03Pnn0pMLBioddJA0MEUlIy6ZlnlsEuVIt27YohT08P2IUepb59Gxo2dsIjCbCXDRj3LBTBZcWjknXvHrV/5x3YzGrQImyHmUHaET8yupKWlkbpWCkMHTo0nw1Ou20ZHLEbzS1pgFUXeIdcebDimDJljxlI5X+xL1w4bcY10sQYAmlpWYp9aceOS5zSAl7D+7R06Qk6deqGseZOdywdnroBbDDFe3cnpiy5e5SnnXnvYDBC9BORx1RffH19H2yr9c85w2eHVB6s7flPRF0EevZcQvv2xVFqaq59adasJ2B8bqzuJGw0Gq8WWCIiBtNBbH33g8vR78tfqXRQDv1v3Trq8O67NpqZ7YZ1SOVhO7hce+QtWwZRWNgWcGuOwXbkOopD/6m3BknLEySuxeBbMEWgJWxmTUDUcjVxaOVRUpLY4MGD6cMPP6TzCGDil4Bds1+AEciu2nI6AU+u9lIUdL99+tSHt+U6DRzoGisOU1g8CjsG/3F6QlPJj+8iUG7z5s2Ku38v3KlMTCxM9BmmVUFqvA3iYwpsLj61alE2+sT+kXzhkTnzn/9QIzgFmCBmC3FY5WEJkhgTwpKTk7F3X6pgLyVsbPEKOvaYphQH3xV7BPuDs8F/5koCvCq6DNPMhASF88HHtMIeF3bVspfFVoqD5+KwPI+CSGIjRowwSRILDAxUSGJMY2eeSBsYu7Si69Y192FLO0HAkghoGabx4Cp5gYJw948/qEyTJvmGYGapPYjDKg9LkMSYobofvnKtaIlm9vBgZA6uiQAzTBsjZuseVhfMMFW2RRaixFsaUYdVHroksZEjRyrkLhZdkpj+NoRJYi+88AKxrYNJYt3gm2caO69E2BcfFRWl9DFmzBgajtiCBCwZRWyLQFZWNi1Y8CetW3fOthPRG50zp/8P+TnmNGpkkmW6bNkyxX72Keq6cNyVOaLPMGXSV3J0dL5L7+I91hcmjaktDksSMwcoNn7qyhCm8SI8WqT4CGg5NuyytLaw4ggKmkbNm1ehuLgkqlLFH67il609rNH+2VVbI7QzzmnoIra8q2DH6AKl4AUuxx4wk9sinqqVXiAbx0lVRSYxts/1hqKJQCwKS0EksXMIyAyAYZUZpj4IwQjq04duI0qcDaZsJM1GX/dhp+OQ/NP9+lFNzEHDofqgyteFQlNTHFJ5mE8SUxNK1xgrMTGdYmMTqVkz6yvha9eS4alIxpcvUwHXw8ONmjSpjNWlt+pgM0nsQPQ4hCssolsXLijbiSDYHiZP7kReh1ZSCkLlu8OwaUw4mpvjqb5ChjGWgpSHsevt9ZhDeluEIGa714mD4pjnwV8aa0tkZDzijKIeKI/sbA2NGtWS6tYNtPbQBv0zPZ2F73v/1ChKg7LoNnmkQlbcvumGyaJPHIzJOWeYEuBs4pDKgx+CKBDbvYpr155TBX9+xjzWjRupCiW+Tp1AGjHCNkmEYylWAZzn1KLuu7Ti+efpzJinKR05YC6CyzHCiB2CA+OmYzUyceJExRbnbOKwysPZHoTcj3EEoqKGw+YxH0bupiDx/dt4I5WP+iO/y7DISIqEYshG2oZ+q1eTtxHl8P777yP255SSdIpJh5x0yplElIczPU0nvRe2cTRt+pDd3V1b5IYpSD53wqTHuvcryqOgpy/nBIE8BNjmUSPUsmkIHR1cUR6O/gRl/qog0GYc4vEpDGkILTVciqU6slk/ojxsBr0M7HgIWExzON6tG5mxwzJMjdyLHBIEBAEVEXBIkpiK+MhQDxBwKwALa/wiqz1eAbeXdyoDrM+NKNpUDszP5mCCRqGuTxDio5LBJA11Qh5HYYjIyqMwhOS8DgIa2rBhO0pUDMcxVhjWUBq6gOeOUbPmEOQOjVBhvIIfNrtjg+rXVyrDeYKW3u6tt6gF4qpiOFzeAiUZCh7d/s6KzcP+noldz8jPrxTIWhdVnWONGrGqjmfOYGVQfEkrXsgqhtBXcy5zqjaiPJzqcapzM+55tXLUGc1+R0mMjVWKWNdCmQ5XFNm2uOJTL8E9h4aGUiiKLUd88EEJeinapb2Rdu/i229TPFidthIOhMtCKQXenpRBkh7+P9s+2NaR+vffNp2brTAR5WEr5B143HHI+XoLyWrm/OtfqtzFGzt3Ugskxgl/4glVxjM2SCZC4VlhZqOiYDVkn7uC3C9HUcjpBFJYcg2XSiphYWxutjom2xZbIe/A43KNEv4S8S8uC3sh1iNRL/8iV4T3IR4lE5/6/nvFqHgZX3zOdzEkr3RB9I8/kgcSMN1AbdVOkyfTdaSCjEM2Nw55b4oETYF16hggw0md7qF8qAfqCWuF5xD+5JPUGlXV+IvN13dFAfMcBKOdQJU2Dnvvgy/3PVRbi0KphDIVK1JZ1CYOQX4M/TkZDGjkgDfykeqG3NdAJUGtNEYyKVcUWXm44lMv5j3/BaWwom9fWo0yA7VQdmBCnvJgLwR/6WsiwrTlqFHkW6GC8uVlqYKkNe6lcn+juL7r+Y0bqQmyfrPX4uxvv9FexH/8G5nb2PUZOW2awcwOIJfn1whEY3r4oK1bH5wvV7MmlUY+Wv7isteDI1uzUlOJx6iHxDv3UD6UhUtB8lxbwcV6CGUa9edkMKAcMBsBWXmYDZU05DB0/qL2K6Sgcirqt/ojgxaLj04Ji2SUIPAsXVo5znVdL+/apaxeWLnwqoBXI7oyNSiIasMYOQBFlaq2bJnvnO4Htkewt6MUarm6oaaw8jlPuM8GqGfMch+lH3OwYtKdk8lO5UShCMjKo1CIpIEWgRSQoe7+9ZeSNcuYsDJYhxVEhXr1FC6EgeALrs0rq5/YVzmu5+70r1KFkjDe3fh4g660B9jmsAhG3B7I0sWKw0B0xzQyhkF7OWA2AqI8zIZKGo6Li1N+ub/GKmEHijxzhXhd4W1Lh0mTKGb7diXPhb7wakTxWEBYCTE7k+0kvNVQPmMroyujTpxQtjT7uBBXx450DisQfeFtC9s9Ti5frn9K+cw2mJRr15T/88pEu4Uy2lgOFgkBUR5Fgsu1G/PWosfXX9OYixcpE/aFr7AyYGGFwAZMNn764Vizl1+mDfCOpMHIeQl2ilSsVM5v2KC0rffUU3Rs8WK6eeYMNXj2WaXSPFedj0b2e2P5MRohye9weDZaIrnwDmyZWNgoypTwdNg12A7Dbe7D48H9sIH0AuwqvEWKQ5W2R7ESugRldmj2bKUsJIvunFhxiRQPAYltKR5uLngVMyixtcDSPxJbhAP4Y5dl/9/W5B63OCJ546HfeHhjeExWTmMuxVhpPIvfgNN3KCsPp3/ElrtB9nzMwOrjGmqEvIhf9/7wllhT/kK1tJUw0rJ3h7dEYy5dsuZw0ncRERBvSxEBc+XmvB0YsGYNVVWpsPKSHj2o80cf0fMo5ixifwjIysP+nondzug6DJinf/3V6Py2jR+vsC3XI8pUaxTlhrdhH9kDBcDksF0opXgHq4dZMIwyL4OFjx2ZNy+fe1U7APM1jqJsAZO69EW/X93zJ1GpjWNO9qIg0ilUauNtz0xQyW+ePas049VMbF4BJv1+5XMREICLTEQQMAMB0oC/ofm+Rw/NeH9/nfbsfdVo7l65ovy7dfx4DQhiD86nJyVpwABVPi9o3VqTg+IrP7ZrpwGJS3Nh82bNpW3bHrTN/5/cfo+Hh2smeXlptq5alXc697ixfrXXa+eSkZysgRtXAzasZm7TpsppsE01d2JiTIwph4uCgKw8iqBoXb2pL0hbIfCOHAFrVF+0pDD2crALVitM6/ZEyDp7SHzKlyc3BLmxXNi0iU6DbFYL9YILEnbFRqJeqxdYq7piql9uo50Lr06qNP+nzksESiEwSY3ZqSIlR0CUR8kxlB7yEGDXKBs2mbuhL+wq7YpthFaYWo4VgOI2LYno96vti+u3HsOWp1Ne9C9zUur06kVs9GU3r0jJERDlUXIMXa6H9HQfg3vmcPkkMEGbjxhhcO74kiWKW5fjXLTCn5/D8a1vvFHsL7Oxfrl/XuXsR5xMe1Rq0xZj8kVgXHWsYHpAeaweOFApDi1SMgREeZQMP5e7OjCwFp0+3Trffd+7fVsxlPJWhN2qTFPnSvL7p05VVhYHUSmNI1v5HJO6mDz2f7//rmwvOFJ11YABimHVlCQlPUYHDuRPeajfL7NIw7GyYGYrb09YmbFi2gT2KYfPc9Tt9ePHqTY8OKy4+DgfEyk+AkISKz52LnZlQWn2rJHLVO3xXOxxWuB2ZeVhARBdo4vcZMSxsXeoZs2ZuOXcz9ZLgvxP/2FhW2jmzAM6Y7oG4vZ+l0ISs/Mn9CP4EbuRG8MDEaPfItX/0KFDyc/Pj7y9vakUQtlnzpxJnkiSs2DBAloKnkWECf7CD8hrsQKchzrIu+GGSNNRyLvxPRL2aIsvD8DWgft6E/VXuT+WNljev4IkPyKCgDEEZOVhDBU7OvYrSFn8BV8E0lNZuD1ZpsNOMA/EqlZges6fP185tn79euXLfgzxH6bkJWTqmoOEOGdBlkpHbgtT8jEyf82dO5eWgWwlIgiYQkCUhylk7OT4VBgdx4O9OXr0aLqHyFFdaQvvQXR0NB0+fJgagFvxMqJZWamYkoVIyzcMUaa8yvBBeLopmQgvxauIQGUlIiIImEJAti2mkLGT4yEhIcRbDl5t7Nu3L9+sDsBz0QxJd3j7wfITwtp3wdORgpyevLXRF1Yug+DxYLkB3kMsSgdo5Sq4DxXyiFifIzVgNQTAiQgCBSEgyqMgdOzgXFhYGGUi50QacmawnYJXFmyXYJsH20F4dbABuTK2wDXKUh9xI+FIAFyYraIieA/dwO7sx7kwwIsYCVer1tZhB7ctU3AABMRV6wAPqahTjEPGLzaeasUL2crfAOfBEhIbm0idOyNY7fJYS3RnVh9hYVvpkUcCaNy4Nma1l0bqICArD3VwLtYo/CXN9EiiDM/blOOWVaw+tBct2fGuWde7azzJOyuQvLIDjLZPT79v9LgcdD0ERHnY8TMPe6cJxSSewwwNY0WsPe1a5UKorHd5aw8j/TswAqI87PjhPdzQjcqmVbbJDMv5ulGz6jVsMrYM6hgIiKvWjp9TYprtYi9sObYdPxKZmg4CsvKw89dhE4LNjqJamjvyYIxBGYKbCCpj1qkvSjmWQZ6Mnj17Kp6W1xHoZUw2InUgM1SDUXWNpQ/KLa5DCYOxY3MNnh8hyxdfy6QwZqyyNGzYkHoji5eIIFAQAqI8CkLHDs79jujT9xElyoqChRmib6EEQSDyYSDrE10yIylw9+7dFbcse1zY7WtKmPoegNKRb6MivSgPUyjJcS0Cojzs/F1gvgYrDOZ18P+Z78GKg4VjVMyRzcgXykzULkjUw25bU8LxMbzCYSUiIggUhoAoj8IQsvH56qjpOmHCBFqOimgnkICYiVy3UNiI2aBM7jJHeiHPBa88WBKRwyIhIeHBZdyXNmZmBBL5MHlMRBAwBwFRHuagZMM2s5G+j5UEB7KxveI1VE6bgWxY5ZEPlO0erBSOHDlC05A5i+NbnkJFtoKkHApPt0TR6ClTplA2smlxe62to6Dr5JwgoI+AMEz1EbGjz8t37KTkjCSzZ3T79k2Kivr9QXsPD0/q3r14hk9/7wAKCWpk9tjWbDh9eiQUXlVhmFoT5GL0LSuPYoCmxiWJien0yTvHKN33ShGHeyhf++jo/UW8Pre5T1owlco2nRqwWJ2W4CJWHiL2hYCsPOzreRjMJiEpgeLvxFN6lun8GwYXleCAj6cPVS9fnSoH2IacVoKpy6UqIyDKQ2XAZThBwFkQEIapszxJuQ9BQGUERHmoDLgMJwg4CwKiPJzlScp9CAIqIyDKQ2XAZThBwFkQEOXhLE9S7kMQUBkBUR4qAy7DCQLOgoAoD2d5knIfgoDKCIjyUBlwGU4QcBYERHk4y5OU+xAEVEZAlIfKgMtwgoCzICDKw1mepNyHIKAyAv8Psi7EybUWMsYAAAAASUVORK5CYII=;" vertex="1" parent="1">
          <mxGeometry x="510" y="410" width="271" height="91" as="geometry" />
        </mxCell>
        <mxCell id="Ua7MzMNx5tIf73Vf3fs6-2" value="" style="shape=image;verticalLabelPosition=bottom;labelBackgroundColor=default;verticalAlign=top;aspect=fixed;imageAspect=0;image=data:image/png,iVBORw0KGgoAAAANSUhEUgAAAeoAAABtCAYAAABuryLuAAAABHNCSVQICAgIfAhkiAAAIABJREFUeF7tXQV8FNcTfnhwdwlBCiWU4O6uCcHdWihavLhDsFBcihZpsRIIToGS4qV4sQLF3YIGSeD/n2+ue9zt7V3ucpHL3Zvf737kdt++fW82ZHZmvvkmzv9IhBSH0UDQmDGi8qjRtJ5NDrMmR13I1q3HxZo1B8SqVX1F8uQtxNOnq0TChPH1y/Xy6iPWrh0g8ufPZrKFGzceiYYN/cTp0zOMzo0fv06kSZNcdO9eRxw58o+YNWurWL26vxg+/Gcxfnxr8fr1O+Hl1VvUr19C9OpVT+TJk9lkbuXAuXO3RNeu88XBgxP50I4dJ8XOnSfFzJnfiIcPn4vGjSfrz2lN8vvvZ4Wf36+iWrVC4rvv6oukSd142E8//U7rvi6mTesoihbtJxYu7C5KlfqCz3XoMIv2VYo/WGu8eHFF4sQJRc6cnXmvqVIlFb/8sl+0alVR65a8vp07T4kZM742Ov/33zdF375LxPAKBcTO24nE5DI99OfdQl6JvoO8xYA7t8TRo0fF9u07xNatW0TqNGnE8+DnokzZsuLKlcviwYMHImOGjKKBt7eoW6+uyO3hISLrz8/Hj5/Eu3dC5MiRgX4PQjT3Jg/GXg3EjRtHpEyZSOBfV5TPf9Vccfdyz06jgaZNy4lt244LX9/SvKfr1x+KRIkSiHz5slq1RxjVV6/eiooVPcWyZXvpmjriyZOXwsMjo9H1yZK5idmzuwhv7wlsqG2REiXyiAULdvIlMHxlyuSzeHmVKl/RC8OPtK53eiNteAGMsL9/B9Gz50Lx559TTf6IYa3z5+8U3brVNrqPOSOtXszjxy/J+H0Q2bOnE6lTJxMhIe/VQ4y+pyHDXLduXf7MmTNbBP3xhwgI2CgSxI8nvvwyvyhapKiYONFP/Hv1ivht5056cTgtfHx8RJs2bXgeGPmePXuKPXv20AtFKj42b9488fz5c1rHO3phqSYqVapkcQ04mTZt4nDHxMYBGzZsEAMGDKDf7eu8fLz45MuXTxQpUkS8efNGNG3aVHz//ffi48ePolOnTuLu3bsiU6ZMYsWKFfS7Eddky3369BEHDhygF9M09DKbn36vZ5uMkQccQwPSUDvGc5CrsFEDMBr79v0t/v33gbh8+Z6YPv1rMWbMGjbQ8ckw4Ni6dQNFnDjab+DwHGGIZszYIj59+sTe88iRzcVXX7mzR+nvv4m8wHti9OiWYv/+8+LUqWviwoXbokCB7GSIiolmzcpZXPHz52/Eli3H6I9pMBmeM6J6dS+RLl0KUbXqV2LKlI207vti7NhWFufA2r/5pgZfowi85IMHL9A+H7FXXaNGYfLQt9If8GWiffsqvOaAgCPi0qU74sOHMF5z2bL56Q/5e/bo4WnDw9aSkyf/Fb/9dlqcO3eTvOITZABy8Vrz5s3M802Z0kGE7T2jdanmscpkVPExlPXr19EaGvLn33//FTVr1mRD/f79e+Hm5kbP7vOfpDNnztBzvEzPaAZ73m/fvtW8j6scDAgIoGdZVvz111+iRIkSvO2vvvpKBAUFsX46dOhAzz6AjTKOL1++XPTu3Zv+n+zjlxwtGUMRvPr164uWLVuy0a5QoYLWMHkshjUgDXUMPwB5+4hpIEmSRBz6NZQffuhk9WRdu9amsLSxp6lc7Oen8/CU75kzp2ZP21B++aW/xXshxDxkSBP+GErv3g0sXqc+OWBAQ6ND8JIXL+5pdGzr1uH674cOTVJPwd8fP16hedzwYNGiuSmUntto3OzZnY2+B9lgqMO74e3bePEpwMMSJUokChcubHTJtm3bKJrwirzwieLRo0f0IjVSJEmSJLxpnfI8IgrPnj1jHfz66696Q61sFi91ffv2pZe/sQKetyLwrhMkSBCuTjw9PdlTl4Y6XFXFyABpqGNE7fKm0aWB8+dvUY75gNHtYHh79KgbKUuYPXsb55sNpXXrShTqNc2La93Q3uu15gzvGKIRyH2rZfjwpuTVanvb6rH2fN+yZYu4ePEi5bG3ssdnTp48ecKeYKtWrTh86+/vLyZMmGBuuFMf30mpglq1aonSpUvTy98Qzb1my5ZN3LlzRx9FunnzJkVHzhHOYpbmeOVgWFgYpxtmzpxpcZw8GXMakIY65nQv7xwNGvD0zMEgsKgSW/PU6nXYe716Pmu+IxoRlToJbw0NGjTg0PfgwYMpUlGRUgLpKLxf1eQy5E6Rn4bkzZuXQvc7TMa4ygF40S9fvuQ8/v379ykVc0pkzmwMZEROOmtWHSYDOesuXboQ3mKZZn5a0duoUaPYkCO/7eXl5SrqjHX7lIY61j0yuWCpAefQAMK1MNII6WoJjDgMDQTetQehxF1RkL9HWPrQoUO8fXi/MNy9evUyUgc84tatWzPmAvlqhMnD05mSo3ZFvcamPUtDHZuellyriQYQxh01ajUBrC4SeKY3A7bGjl0rcufOxKVJAEH16eMtcuUyRm8rE82bt4NyoL+KJUt6EbDpc44UZV8TJqxn5DgKGAEy+/rr6oQqn0go6jrk1TwT5cp9KTp2NAXpbNr0JwFzLpB3k4b+WK6m9bTk2wHkhjIrlEetWLGPQGujTPajPtClyzwyZK/oD/Mg/SmsGWVkPXvWY6Q6AGPIZVeg0imUg6Fk7OLFO6Jt28q8ho4dZzN6PVOmVAwwQ3mYlty585RBaS1bViA0dinCAARS2mA/DwXye+NG7ZCr1lyvX7+m8Rv5kyJFCiqbSyiKFy/O4DAAni5dusTGN2PGjOxdAygWGBjIuejVq1eLevXqsbeNkC9C3leuXCFg32itWzn9sV27dhnljpFHRvgbhhqh7erVqzPSu0aNGqJJkyb03KYRAHK/uHHjBoPMgARv1qyZ0+vJmTcoDbUzP10X2BvCuJUqFSTDGSy++CILIYinixYtKhCStTjv/vbtJ2xcjx3zNylfwnkguBcu3GVkpHE8Z84MhK7155xtYOCfZFBSUX4wnwCYq39/H/7X3b2zaN68PAGcEhlpOkeOdGT823JNN3LBMM4w0ocPX6KSmaeiZMm8hKAOMLpG60tY2Ecqy0rEKO6XL0PI4OmAVMqahw7VAdWwx9Klvyfk+mR+cUBNNQx19+4LCPE7ng23Ulvt4+Mn9u49y7XZagFCHQZZYVbAi87x49PUw8x+DwkJ0RtnGGiEuP/55x9aTymBfOn5CxcY6V2oUCEuKULOVRGgvVu0aMEfQ/Hz8zN7P1c54U115/goAuAdkN8QJTVgqIv+/fvT76hlsCPGA00vJXZoQBrq2PGc5Cqt0AC8B3izy5Z9px8NwwOD988/d60GeOFiGGVF4B37+xsjzGF4kydPTN7uaxNDrUZOK/OgTAqC2mRrBAYVxCr37j0jA3iUyq9M87iYB3v09i4pNm8+xl42BIY9bdrkJrcBkA4vNVpSvHge8twPa50K9xiMOzxngL8aePuImXPmiXTpM4ia1apQ6dUHUbRYcTF63ARxlWqoN274VYwYMYKNMuqogeq2V8LCPlGd9/+orljQ/l7bO53TXT9okDFoz93dg17k+sSafcaLF4d+n5NQlEy73DLWbCSCC5WGOoKKk5c5ngZevnzL4e4ECeIZLQ5MYwhVW4vENrwYXnDJkjrWL8Pj8GIhWbKkiTJFBAWdY9AXjC6IUswZaiwAIe579z4b4LVrD5JXZVzaFRr6kTyxq6JfPx+r1pwmTTIiHNlB4egXvM8uXWpavA6G+t79B+LR48dMxgFDDTl8+JB48vQp/3yHSrLu3btHkYV7tOZs4srVq6JYsWIW57XmJAx1aGh2EUwqKFbsR2sucbExujI4w00vWRJ79JQlS3KqEmhF6ZtkLvbcdNuVhtolH7tzbjplyiQMpEEe1pBK9OnTVxE2qMhVq+uzkbt9+/Y9ee9DNMPpkaFdGFUQj6B8C/v588/LbDAzZEipOf3Dhy/0LyJbtvxF4eWcRsxnGzYcITDSRTFuXCtOEVgj7dpV0Q8D3SnIXswJeGUACgNpRgCFvRv7+hCbWWqmEK1SpYq4SDnpPB45/stJ+4rfCBDlSWxlkS9x6EUg/LBv5N9Xzig1EHUaMOWVi7p7yZmlBqJcAwqVqHKjiFCJgqUMAiAactUIcxsKctQIhWtxiEfWBsFm1revNwHhGhAYyJdyzKWJae2g5vRv3rwjRrFTnIdG+Pv9+1BC/RqHyRs3LiOmTu3AOXlrBUxliqROnTRcClGMBdBp+g8/iBuEUp4+fTrzeqdNm5bZrxbMXyDcKL96+Z9LYlPABi4JWrVqlf4eKD0C4EzJu65Zs4YZtnAMXjeQzK4sIDIxRHEjapEyZUpRuXJlJkCZMmUKqwfAsvbt2zPIDKxveHnVEhCkLFy4UH8KYD2wnElxPA1Ij9rxnolckQ0aiCoqUSwBPNljxugQ2/h+9uwNNlag2YRRNPTatZa8fv0hykeHMuEK+LURlgeyGvSl8PLhrSO3rAaj3bz5mEPdSogaOW0wnS1atJu85PxMIQoPGshv5IavXXtA53ow2Ozrr+cQyC29mDRpA+fQ0bDk1q3HFPK+wh42QHHmBBSjZ87cYLpR5L1B0Qo0PfacLFlipkHdf+SSuctNjttLIZozZ04GTYFaFIhwIMRdWSKbQhSYDnCHAy0eXhmXK+vdEfYuDbUjPAW5hghrICqpRNVlTAgnP3oUPhWnshl49/gYSrZsaZm/Gx9zAkMbGDhUfxrIc8NuVsWK5SZGL20qUi2q0N9/H2fuVkbH69QpKvBRBPeJSgmPQhQsXIogpI4yLVeVqKIQRVSjY8eOzAcuxXE1IA214z4bubJI1EBUUYnaOy9adR49qgu1K9sFOtyWELWtaoqJexqu0VoKUeWaw4cPE6CvpK3bdKrxUUUhim5lKOWS9KGO/esiDbVjPx+5ukjSQFRRido7L+q9lZrvSNpquNPExD0NF2UthahyDXLVP1De25UlqihEwQ63dOlSrnUHjSvy3VIcTwPSUDveM5ErCkcDyOGCgQslSQB1ffr0P6vZyNB+ctCg5dwmEuAqL6+c+rt9990iJiWBoNQLhCLIz/brt5SYxPpwa0sAzAYO/Ilye75EtGLcUQvXdegwi9HXx45dYdYweMZHKK+7du1A9pzRO3rPnrGcc7YkyGW7u39DOeOZomDBHDwULSzBMgaWtVy5MnHuOX36FMTM1oLz3GpWMuTEW7Twp1rlklRm1ZXz4kOGrOT5QMKilrdvP3BuGznxyZPb8+l8+bpzrhsyblxrEZmdnsOjEMU9wWCGXLVh+0tejAtJVFKIQo3Q7/jx45kb/Ntvv3UhzcaerUpDHXuelVzpfxpADtfTMzujrmHwbGEjw3gAshInTmRkpDF1o0ZlqEGBrq3juHHr2DCjJAo10zDuAFPhnl5eHppGGnN07YoOR/nEnDnbqJb4OaO2wUQGJDZyzWoEubmHumHDYdGpU3WmG1XabubNm8WIZQzX4iVi0KAVVMbVWZOVrE2bStyHGqQtoBhFWL18+S81bwtQGqhSASBTBHSp2IMiQccua16rPojwNgBg6HqF7ldoWQmq0BMnTjAK2RoK0Rw5chCgbz4B+saop3ep79FBIdq5c2cqN9zkUnqNTZuVhjo2PS25VhMNRCYbWeXKBXn+4ODXXB+toLHBG64zWIvZs7YkhoxmyjiFkaxwYQ9Llxqdu3v3GVOV1q07Tm+otS4eNKgRvbT0YkMN6lCIIStZggTxqQSnO3vip05ZDh8jjK8QuWjdK7xjQCXDOOMDilBvYigrWlRXDtbQ11ekz6BDbSPnnD59emYlU/ofx4sXj+hYm/NHETxbheYSP4cnGBOXCk6tGRveXI50HqkCfJR9gTf92LFjvMRgMLwYCMb069ePP+rjRgfoC8rnIMq8aDtq+F09Pma/x6H2nTG7gpi8uzTUMal9eW+7NRAVbGQog1LXIcNoliw5kEurolpgLMEXDu8dYWfUdaO0SktQbvXiRQh77GggAlGzkuHloUYNL2pqscbm2u+rV+9TfjhQPH78UnTubJ6ZDHYUvaXrU930vv0HRL78BagcLZ7YREYbRCgeHrnEqDHj+HOCSq5mzvyBONh9uVnHzz//rLU1m47h/sHBCakphSAE8w2brnWFwdOnDzfaZpYs2emlKPaEudOmTUyEO+lNWAdd4dlhj9JQu8qTdtJ9RgYbGTwK5EshyM+iOUXWrGmNNIZ876JF3ancagp5N1GLQAbfNrziGTO2sMFGBytzhhp5Z5CRKEZai5UMG/Hza0shezKkxB1uLvSt9SsyZ04XPvz33zcphzlXDKfwuZZAex65chOPd4D469hfwqehr/AhQwz5999r5OnGF4cPHRSBxFoWuClApEyVSjRp2oz+8CagtdnfeOPNm1B6mUjMhtrP74DWEl382OcGKLpnErv0lCRJAupw502RGMvYDmd9yNJQO+uTdaF9KWxkvr66ultb2cgWL96t9xZXrAjiNo9agmYbjRuXZY/VsK5Za6w9x9CEA0A3CIBgZcsOpjDl10yYopZVq4KoB3ElPgxWMtCNqqMBOIduX7Nnd6Fw9ARqj6hr3KGeS/0dXjReXEB+kjp1MsvMZGSp9/8RxFPs3buXaUTr1KhGgLrXlPv3pbVtFteu/ysa+jYSAZsCRWGvQiJqIplxCKzXTr0Vp/gOZjIQlKA3NQTMZPmoCwnSDG/evGGmN7S0hCAkDmayyZMn878fPnyg3/HOfA3Y3szVpPfp04dpYNOkSUPRl/z0OzPbKXQX2zdh+j8/tu9Irt/pNQDU97lztzgkDBQ3jBjAUgjRzpq1lfsor1s3UO8lGyoEYWKgr0+dusYe69SpG8X69bqOUUCP41yJEnn1l2zbdpzv8+TJSz4GpjIPD12zCXOKBjr76NHL4vTp67xOCBDVYCIDOA1MZUBsawleAtAKE125INgfZPLkAJ7v8uW7tN5DzEo2dOgqzilPmNBGvH79jlnJgNouXrw/8WsPp57E53mf6FcNAQIdADlzAspQsK6BY3z79hPcdWzKlI2sUz+/9fRzB3OXGh1HB625c+bQPu6KX6lT1mDqnQzjfebMGTF29ChRhIx0vi++IMDdHKPr0JN61KhRBI773HsbhggUovjs2LHDqvs76yBDZjJljzC6oP1Ezvr8+fPc6xt6RF9qGFtFli9fzgYdwDT0Cke/anMC8N7u3bu5XziMtpSY10AcCvuFj9KI+XW6zAqC6D9J5VGjab8SgekyDz0WbTRozBqx83YiMblMD/2q3UJeib6DvIVfiHXtJU+dOkUUqQsonP43lcPpXpIwGQzNxYsXCXWOiIWuVzL+hZdnvcBPd74/aWAmQ05/5MiRjM6GpwzvGAYZ+oKcPn2ayhTHsrFG/28g5uFN49OyZUtGz39BL0jbt29nala8FKkFusZ4cLOjZAvI+3btnDNCod67I3+XoW9HfjpybXZpICoZuFBf7ef3q8n6hg9vymVY4Ym914c3v6XzMXlvrAulW2ggUaBAAXHjxg2u44V4enpShEDn/Vtavyues4WZDPpxd3c3UtNTajOKbmYQ/PuYWpFakrCwMEoh7JGMZZaUFI3npKGORmXLW0WvBqKSgQulW+gVHVGx9/qI3hfXxeS9cX+EXtH1Cd7g6tWriYRliNntXKV+1WAlg2FBjjVXrlxmxzrzCVuZydS6QAczdCVDWRzy1/jXnMDTnjVrFue8vby8zA2Tx6NRAzJHHY3KlreSGnB1DYDwBCFbhLTjUtEzDLUlQR4bNcEgTQFzliuKwkwGQB7oVOfOnStguNUCvu7WrbVfHkENipA3BPXSlSrpAIjqOfAdIfLffvtN9OjxOb2hNU4eiz4NSI86+nQt7yQ14PIagJGYN28eodCTsS7QXvHcuXNEa6ojmzFUELxo5GazZ8/O4dqQkBCX1J+tzGRQ0rBhw9ggHz9+nPtTo5c3IhK1atViXUtO79j1qyTBZA72vCSYzPIDWbfuEPERz6Nyn2GiXLkvCVSzgdHdKVMmpXrd+9SmsZioVq2Q5iQKV3bx4nkIWdxIZM6sy9lh8MqVQczjHRr6UaC9Y61aRZg29Pz520wd+s8/d5n9K126FCZzxyS/t5qfG0jtYcNWcUnVjRuPKKzchNDhK63ah3oubNSE65soRK0Bk2lRiNatW1cglL1s2TIGNQEVDqBShgwZOGcNw7xq1Srq+32WvWiglFFjnTdvXqYchVddvnx5E/0bH3BOMFk4m5annVwD0qN28gfsbNtDiVHSpG7MW436ZxB+oDEHBOVVJUoMIFTsEDZUalG4skEVamikMW7ChPVkzGaT9/FJFC7ch1ibyus5wUePbkElYJsJWLOVGlO0Uk8bo/zean5uEJ6Araxnz3rcqARNRhRu8/D2oZ4LG7WF63sj1U4DkaynECWK0M8Uoo3YIJ88eZLKxOoyfSi4v1G2pQg856JFP/fDxnFZx2vy6xZpB7p27Wo0F/L/Sh12pN1EThQpGpCGOlLUKCeJCQ2AwWvgQB37Fe4Pfm4YcKC9u3WrbdOSFEIPEIakSZPc5FoYdvSe1pKY5PdW83Oj5lvhFkcXL9SF4wVFEUv7UM+ltVdzx1Dk2a1bN1G9Rg0RuGWbKFaiBLGOJSTDHSiuXbsucuXJI0YSfSg+R48cFtOnTWX+atCMDhw40Ny0Vh9//z6Mct+JqSRJUC25rlzJ6otddGDOnG2Mdk69UhxWd2Aka97ck1Im4VdUOOPjlIbaGZ+qi+zp4cPnZFR1uU5ly/h+//4zmzUAb7N9+5nMxDV2bEuT60EeglB7VIm9/N7KukCQotCJAt2tEKYo523dh7Vc3wg4lyxZSvxOHvKlS/8YUYh++vSRoh0fTShE23fsJHKQF/3q5Qu71frq1Xsi6NDVcb97F2b3fHICx9LA48dvOGLmqiINtas+eSfYN7xDhL4NBd/hSVor4PtBQ4vhw38mdqep+vD50aNTeIrjx68SycQvlKvNSoa8qrXT2jzOHn5vw5uB9xsvGxCwlSFSAInoPqzl+gYf6Pr167gTE5iyAjdvEbWJQvQ1UYg2bOgjthJi+TQRnYADfN2vG8RXVDMdmcQk8OjDwvCHfLIYPDi8PDarREos0gCo+BMmdF1z5bo7j0W/pHKp2hpo0aICkWf8xWAvCPLL8BgBFLNWkOdu0qQsA9LwiRcvDvdLhvGGAHg2dqxpXtra+a0dF1F+b/X8yEdfvnyPD6ORBpp5gLM7Ivuwieub7pcoUSK+b+3atfkzf95c8RtRUYLdqm/fvqIwgcMUfm+Ayb777jvKpffUbwHUl5MmTWKkN5i3IPv27eNSIdT9Yn5rSobc3Jzzz1p0cH3jOX355Zf6UrjRo0czQlyixPW/pjHyg3P+RseIKuVNo0MD4N5+8+YdG+S2bSszd/a4cesI9Z2EcqEPiRyjk8iS5TPHseGaEMYFMhzGHYjot2/f879o31i7dhHmyUaOumHD0iJ+/HjETX2dx1+8eCdcL13h90aoGfzeBQvmYH7vwMA/9fze9eoVI6NlSjRhyO+N0L0hvzfAcwq/Nzi4Q0I+0BpDmd8boubnBsnLoEErGPwGPVWqVFCMGPGzVftQz1WkSC7m+s6bNzMj4sH1Hbb3jE2PuSblrNUCCtEqVaqIX375xchQX7t2jRtGKJSYaCQBw43yJAiIUlxZDLm+SxAGAKJwfSOSgRIsjKlTp45Zrm9QhAJEBq7vihUrmqgT86DxRw16biidk+IYGpDlWY7xHPSrkOVZDvZA5HKMNBAZXN/go0bvalCIHjp0SE8hihuBKhMfEKKABxwNOsBxDSMOwpNChbRL7z4v0jnLs6KT6/vVq1f0YvcvRzNAfiI96pj/IyA96ph/BnIFUaCB2bO3CYDNDAXtIG3JX6uXZS9Htr3Xq9cT0e8xvQ5rKUTRvQlhWNRU37p1ixtLwLC7okQn1zfSEf3795c83w70iyYNtQM9DLmUyNOAtT2XbbmjvRzZ9l5vy1otjY3JdWhRiJrj+kabRvBTQ5DnvnPnjqVtOfW56OT6BlZj6dKlolSpUqJq1aoyP+0Av1mS69sBHoJcgnkNoPd0nTpjxTffzOHcLfo09+mzhIgwthEV5Q4CJC3i3LQ5wZjs2b/mPsuGgt7OXbvO597VYCCDYKybW1PqZa3z2pCXbdBgvPjjj/Oa04ORDH2iGzeeLGrWHM39rZs3n8pjUb+MvtDq8iitie7ceUogNl9972qMQc67fPkhxNw1Q4wevUZ06jSb1wlvGIL896hRq/VrByMZzs+Zs41yjMsYWGfrfrCOFi38Oa8OgW6wB3x8fSfyMVsF7RTv3bsnrl+/zpcqFKLIlU6fPl0gzAoKUS0BM9nly5cZSY5x2bJZj+bXmi+2Hoturm/oCR3N0OYS3OJSYl4D0qOO+WcgV2BBA+7u6an9YXaRP382kSpVUtGmzXQyJhWoX25xvgr1xzAix475M+GJWgDGWrhwFxnSwkanYNDatatCgBpPNogPHgQTY1Yxng8GD0hy3NPLy4MAWSglMpWuXWsJkJ1grgcPntMLRAOqJc7LiHG0ugQgzRrZsOEwGeLqBK7aT5SZOpCYwqLWsGEpAreV4mn69VvKQDFQmapZxNSMZNu3n7B5P9ABGN1Q6gSJFy8ulXVNs2YLRmOQWwY7GVjK4AWjCxM8wty5cxNFaygh0cvQ86jJFKJgw5owYYKeQhQIbxhuNJAAg9ngwYOJAnUoI8EnTozYy4LNG3CwC2KK6xvc4HiGUmJeA9JQx/wzkCuwUgPwrDZt+pO4or/TXwHDAm8SXNy25J/Tpk1OXtpbnic0NIxbP757F0rGJNN/tJmLxYoVfSyuzNEZyb76yt2m/aCEC/XcERIy7shtbtu2jShek4p69euLpT8tF0OphSV6G/fu01eULltObAncSPXoHQiZn1nUq1ePubzz58/Pt0yRIgVFCUbpb//ixQtGMOOjCI5pCV4uCCRONKWMZsc/AAAgAElEQVRCvHihizpojYuNxypVqkUvi7WM9rVnz0Heys2bxtEkZe/ffz+S6EBH6rdL7zn0grdI/92cjsaM0ZXFKed/+SWArzE3Xj9hFP+AssmkSRNwCaUrijTUrvjUY+meX758y15eggTGniooP8FGZouh7tvXm8O88Dxr1y5KRiIJh9Uh/fv7kGc8kNDHJ6NcU9HBSBbR/aBUDOFzlMCh5K1Ll5pm9QEnHF5z/foNxOBhI0R2yikrcuPGDRE3fnwxslZtUZM+PXr1FlOo7AotLOfOnSd69fpcS232BuGcABsZKER/+klQSP1IOKPlaWhg69YfjBSROnUWYt9r4ZDKAYVou3ZeInlySSHqkA9ILkpqQNEAaqVBRoJaZ0OWIrCRmaudNqc95JdXruzLoV6E00+c+FfAy4bgZWDRou4Usp1COeqS5qaIlONRzUhmz36QGlAEefgCBbKb3TP8nBYtW1HY+m/h+eUXVCddVTT0bSTCKNSdIEF8EfL6jZg6eZII3BQg7t29x3XUQ4YOo25kaUXwM9spX9ULiRPnAz03HXVoihQ64hX1GPndWAOtWg2RKoklGpAedSx5UHKZOg00bVqOwqvHKS9dmg9cv/6Qua1B8WmNgIwEIe/794P1POEw0PiuGGrMU7RobgKJlRUgI5kx42trpo7QmKhkJDNcUET2AwIUXAcBNSmAbGb9GbLUM6brPDQQlQQEbBQBGwPEEWrAgVaWIOJInzEjhbonUv6/mp6hLEJKs3jRCMrll7E4Ijae/PnnnzkCgdDvfOo8kpF0mS9fPm4F+ubNG8YBGHa+Qr05WMY6duyouV2g6d3d3RkvgPz/tGnTRNasWZkoRSGcAb6gTZs2TAlbuHBhZofDWOSu8UylRJ8GpKGOPl3LO0VAA0B9w7gGB79hqs/p078mEoY1bKAB1gJd5rp1A83mrhC+BhUmENnwxtFdauTI5pQLbU7/riYkcVrKv4UQE5MXt808efIag7fQd3rMmJYEUrtscdWOykiGcP6CBTtt2s+OHSeJje0G/eF/z5GGffv+pj/aF9lAJ0uWmAF2+49csqgPnEyYMCGlFZrz593y5QSsc6OQ9E9G11lDIYp89LfffkutS0sIoMeRzwb4zBXF39+fgH1g5XvDv+v4V4uVrFGjRoTX+IfJZDYTv7o5Qw0dos836rMxvnv37gIvA5YEbUzxbL28vESzZs34uUqJHg1IZrLo0bPVd5HMZFarSg6MAQ1EBjMZKEQXLFhAXOR/M/uYIufPnye61ovs0YGZDMQoV69eZW9u8eLFTHoCVjPLgiD8f7B1ywNj1VkQv8yaNYupPSEPHjww8n5Pnz7NukHkAmVVpUuX5vErV64ket2UJnuFR129enU2/gBpAtD3xx9/WPSo8VySJUvG16HOGrXtUqJHA9Kjjh49y7tEsQbQK3r16gNGd0F3rR496tp9Z3uZvOy93u4NqCZAv27UeRsKelijPC06ZMuWLVyOBa8PQDPU7EI8qaPW7du39UuAUYCRhjx9+lQ/Tj/AhX7AiwpC2cOHD+eSKTX6GTXmCiEMQtUoa0PtOrzqtm3bWtTUnj17WPfWyKNHj/g+WbJ87nFuzXVyjH0akIbaPv3Jqx1EA56eOciTaB0lq7GXycve6yN7U6hBV+rQI3tua+azlkIUc8HzQyetCxcumITPrbmXs4wpV64cpWGO8QsOctQIVRsKatKRY0YEArzoyC0jnxwvXjyzhvrKlSvc5Sx58uQcwcCLEa5RJCQkhM8pAs51zPfjjz9S2kmajuj83ZLajk5ty3tJDbi4BmyhEIWqUqVKxUQnCO3CMwSzmasJmMmQoy9fvrzIlCmTAAe6WmbOnClat25NPcHXi6lTpxIQsjEPQZgarG6GBle5VslRG86VIEECfilCtAOsZJUqVdKfRo4axlxK9GtAGuro17lL3RFgMFB1Zs2aRvj7d6Sw2VN6I9/FNc8gKsF3gLuSJdMGpqCOd+LEX8WSJb2M2MVAcwlqT5RloVTru+/qiwMHLjBLWbdudbiuuly5LwlMU81E3yBNwVisCYCysWNb8hiA09DyEu0u3737QJ5ce5NrcQC0oGAvO3/+tqhVqwjVX7/iBiATJ7YjJG16Aq39j67dwAxfqVMnYxYxgLuqVSvEex48eIXInDkNt6tE6dKAAQ0176Mc/OKL7rS/ekQoUo8PKfvEd8wHqlPM/803NcSePWe4jSf0gnQAdI42l1grwGAghgGzGcByagEtqXrv+fJ1pz/yiXnouHGthe4n9ZXa39GBCQxliRMnZhIUHx8fPYWo8gcfrRTBRFawYEGTSUAfmi5dOkLnpyE9pubwtysKUPRAfIOhDflm5J3h+UJvMMQfP37k3DUQ22XLlmVWN0WqVavGOkdDE2tk4cKFjOrG/DDWixZ9Jkmx5no5Jmo0IA111OhVzvqfBgwpQBECBhd2UNAEKvXQGQrklYcMWcnGQ0vMUYAOHrySEM0/kBFISLnVsRTqqywqVCjABh8EH/jX3b0z3a88s44ZSo4c6ciotmUD7+f3Kxt5GOnDhy+ZUHNqrQlUpmXK5Kd7JyIj2IyHbN58jNDifky5uWzZXiYJAUIdAsNdosQAMlpD2ajGjRuX1whBX21LcurUNao5Lsj0ooqhVvYJylKsBZSllSsP55eCnDkzkLFtx3pBfTh6WCtrHT26BfepnjlzKxndVia3VdOSYgBeenAfRYLCQcEDQYwcKgw0DDVCpaALRdgWCGSU+MBrA5obxsAShSjyrgh7Ix8KLw+eoisKvGEtzm2lYYmhTgzBeThuruEJIhUAkqkFSHKtDmWIaEiJOQ1IQx1zune5O6MuF2xXipGGAurUKUqGYLFZQ21OSTBEr1+/Y4OEUqK//75pxMkNwwtPEGxjakOt1Aar5wagCgK2MFvF27sk83BfvHhHbNhwxMhLBgc5jCs8XXjVK1cGEco2K79EgGvckuCaKVM6kHfTk4BXj9gQqwV15DCmq1fvJ3awQfrTwcGvWTe3bn3eDwB28LS1BHn+iOyd56LoQbFixRiN3MDbWwwbMVJUr1FL1KxelcviGjdpKvoNHEQUopvEls2bOJ+KGl6EaOHBQTIQ/6eaz1uN8kYYWEuAXCbHkjx3QS8u9IMUvQauXLlML2czjDRSs2Yt4e2te1mMDaoCcygYCfGvK4o01K741GNozwgPg+7TUOARglkMIVxrm1jg+sWLe3A9Neqgr159IF6+DDGaVzE4tjKW2aMahNJBYILmFnghMRR8v3v3qfjiiyxi1aq+HGL+/vvlBJDqbRHYhZcRMLKhhhyGeMiQJppLzJo1Ld8bgs5gqAnPkyczeayZyEP6XPsMDx4pAWvl6tX74ocfArkWHWkBc4KCKJRb1W/gLapWqyGq16ytH3ri5Enx8hVemJKIahSiBZjs+fMX4o+gfeI51UrD+7ZXQCH67BleQgTp8xd7p3Oo69/Hey7ex38mPsUJtWNd6Y2uPb3ipJhCH2sk7v8SiERhaUSij6msGR4lYzJmTEYvG7WIlChJlMzv6JNKQ+3oT8iJ1oe8LIyyocDrQ77UFiON6+EVK57x0aOXianp8x8RtGd8+/Y9hWCHaHbUiiqV4kUELw54OVDvE9/R8AMCrxqfQ4cuiq+/nmPWUIPWFEYfZC3wynVpAm1Drbt3Op6/cGEPyml24esQ6oZ+jx+/Svn4X5jBrX37qlarAPNAELHo0mWuGE6RAS2BpwOu7z///FPMnjVDfNOpg/Bp2Ij08IT2nUe8ef1KNGxQT+z7fS953D6EJfBlApO3IW+0prP52Nu3YZRuAIXoRkpHVLT5eke94OWHYHEtGKV0ppGU6F5zrtT5RIqEqaP7tnw/eNPJkrkuNaw01DHya+eaNy1aNBd7vjA+mTLp/sMjtNuyZQWrFaJQgLq5JSD6xFzMmgV2MBgnRZD/hacenQIvFiFotMZESBs0pwBvQdAbGp5sv34+3P0LHi3C/+i+hbyyOdm69S9qitFVD7Tz8OjCLG0FC5oSTaxaFSQ6dKjKzGtlyuTjKUH7eenSXTbU6Iw1dqxpXtrcvXEcXjRAdQifY51KL2xz13hTyBsfCMqFQCN6985tkSZ1KhHilogMty8TciSmn61hJjO8D4BSqA0uXlzX3tTcGnC8YkV3S6dj1blTt56JZG8zEkhwjwDqGvXTqKdGy9BLly5RtOMHPgbCEqC+8fKDUitzAtKSuXPn0jPNziVWyGEDUY6a66+/1mEqdu/ezc8POm/evDnXWAPQ9n2f70X9irb9DplbhzxumwakobZNX3K0jRpQU4CuX/891Tuv5xBwaOhHRktbqn82RwGKZhaguASKGcYMwLCzZ2+wMfntt9NMA2rYuENr2evXHyJDFMqeaqtWFbkZB/LouB4gLKWns/paRAGAvL548TatfR2F7T9xbnfDhsHs+bZtW/m/fa3jvtSYD+hrAOuARu/ffym/WIBffMIE7drvv/66Qn9Ar3I4G7pC2Bxh7AkT1vPewFfu77+JXw4wJ9DnPj6lKJT+OxlrXaj77NmbYvTo5gwe+/ff+5w/t9RhTL13vAhNmbKRqCYzMwgOufKwvWfU6tD8jhw0umJpdcYCMxmacvzyyy/cGlMR1P8CzKRwTSvHQXN59uxZzfs4+8EXb3VtPdeuXcv1y0qdM3L1ANrhg9w+GN3UJCjmdFOxYkUCCXYjzMQWNv4A7ZkTnEPtNoho/Kf7i1a1pKE2p6uoPC4NdVRqV87NxmnnzlF6TcDTVcKp1qina9faVN71Od+pXINey2opVCgnhT9XqA+b/Y4GH/gYimFI3dyF8C6XLPlsYNTj8Adz4EBfPoxOX0CEBwWdY+AYvGitPtbqOUqUyEtlNcP1h5GD3rv3M30mvHYtgVetFgV9rj6u/q61dzUaP8hKQ62e2/C7tcxkuObt27fs8ZUsGbVdzCyt1xHOwaM9Sbl+JaIAdHfRokXZSENAMfr48WOblpqTGOFg4C0ZamVCjLF1fpsWIwdb1IA01BbVI09GlwaiitbS3nntvR5ePV5Uli7dwwa7cWPTzk723sPWZxTTlKa2MJPNmzePvb8+ffrYuk2nGj9w4EAOWS9ZsoS5vEF6ghpzewR4gjx58lg1BYhqUPMuJWY0IA11zOhd3lWlgaiitbR3XnuvxzZRHqbUQGs9+Mi4h9a85o7FJKWpLcxk8PZQd22vQTKnh9h0HIQwoA5FPTX4u9HiEnnliMj+/fuZZhR56vbt21Mv9hOcg1YEYXUg9CHg9Ub7THw3TFNE5L7ymohrQBrqiOtOXik1IDVgowbAkgUv2RpmMhCnoMEEctnIUcO4bNu2jVnKXElCQ0MZOIb8PVja0P4TfajRgQzhaLzMIO+fOXNmq9Si5KiVwQCioRsW0gxoY4kuWgqwTMlRWzWxHBRlGpCGOspU67oTr1t3iJin5tGb/zBGOINOE3nblCmTMqipTp1iXJ6kJQo9Jug727WrwmUZEKCPu3f/kfJyuRjJPGxYU6rHfUv3mU+9ql8T85U/j509exv1VL5OLFYdTBDV9lKHYh2gNAWADB4yAF0XLtxmchMQmkQ1dSjQ7R07ziZQWUYGlt26hT/SKai3dgtmVTOkDl28uCfXUvfrt1SsWNGH+geXY0DYwIE/0Xp9jchhlOcAOtcBA5YxCh/ANJS5oXYbAuT3xo1DlKFW/aumEIUHh3zzvXv3GPUNZLElZjIgkhVmLTSZQPjb1Yw0FA1DDdAXOmiBihVUoqBl7d+/P5XcjeT/W8hRA6GNRhu9evXi5zNmzBg27OEJWMpatWpFDH3f8VDQjsJ4I0UhxTE0IA21YzwHp1oFaD+TJnVj4wVjgRpioJ4hCp0mapzxx18tCj0mcrmKkcYYGFnUSsNAHjx4kYzIJp4TbGKg68TLwPDhzUSDBiWYrUyr7Mle6lCsQ6E0HTpUV88MtHfp0t8T0noyo7ujkjo0b94sTGIC1Dc+EBhiMKIBRGZIHXrw4AVeK9YHXnKUiqF0zMvLQ9NIYy6UzeGZgKMcAhQ8KFFtEUsUojhXr149QswfIOKKtMxOtnfvXv30MOQASGnJqlWrtA67xDGEnWGQ1eLl5cXhcENBxMGSoLEHPmqpXLky0dBWNjqMqAeQ5lJiXgNxY34JcgXOrAGUUcGDVkSh0wSAyhZBXhUeLATEISADUQTe89Kle7n8yJIA1axVsgVjD/pMc41BLM0Jwwb6UADFQB1av34J/XBD6tAcOdIzdShAZW/evLOaOhTlbaAONSeDBjVir7dYsdz8ggJRqEPxM3Sl4+tebG4K/XHUWsM4R0jIuAORDG/s1q1bYsSo0eL2vYci7xe6mu6mzZqLJ89fiabNW4pdv/3GRhpjpSGIkLatuujIkSNcZ234uXnzplXXykGOpQHpUTvW83C61ehoQ03pNFH7a4vAAKJBBdi1YLRfvtQZbcwBik1//w7UPWoOGcO+tkwbKWN11KHBMUIdiijDixch3JgDLyqG1KEKjSoIYEqWHEjoc+soIxWlgPYUoX5ECcC21qWLZQrRM2fOiLr16otKVaqJqtVrgv6bZTeRdeTLl18MHTGKjuvaLgYHP2cK0Vu3kDoYYPdzQKQmThwPCtcK4nifaPd8jjLBp9T3xP8SfO4Rbfu6MhpdsmfPQfqOj+0SJ9RNxA0+YvuFkXBFtmwpKPrSjn4PjSmII2HqWDGFNNSx4jHF3kWiCYQWnaYl4g31btFwAd4pcrEQsICpu041alSGOLT/oBKW7RZJPdRzR8b3hw9f8D1jgjoUugUDGYhP1NSh4AeHwEtetKg71YxPodSA9fXIwAgo0rjxZGoMkt2sukAhCpT21q3bxIL584woRKtUqUrc3sF6ClFvYihr36EDU47Go+caGQJDHRqKV4OURADTPzKmdIg5noU8FefvWe6wFl0L9cziKdIkSRtdtzO6D/LwSZK4rrly3Z3HyK+b6920RYsKDHJS02kiZGutLFmyh3PPoOKEMdyx4wTnX9Uyd+63RK/Zy2wfafX4yPiOMPZvv50i0FNjDp3HBHVo69aVNKlDDfeHsH/jxmXF2rUHiWJSRxUZ3v7BVKbwqeNlAPXXuuC69pWoye3Tpzd/DClE49OLAvKshhSi2jNEztFkySytMnLuEV2zJEuWWSQgius7wXdE81bNGZ2N1qFAZqOuet26dbwUAM5QX43e1Mj/g2Y0ssQtgZvIljqbyJzSOlR5ZN1XzvNZA9JQy9+GSNcAjBUMGLxe0GkidDpu3DoOUV+79pByZp3Y4GoJGlWgY9T8+TuYfhOhc7ByIT+NLk7u7hkINRxMYLKG4vLle+xd//77WVG1aiEqT0lNbRLbaU1rdCyi1KGYJDDwT1rTC0Z+A3SFHs6LFvXg/UQ1dei339aiPd8VWD8oTkNCPlD9ayjRirahP9iHjKhDJ01qyznzkyevMfAMfN9jxrQkdPxls/rZseMkIeZv0LN7z6AyULQCuAcDnSxZYn7Z2v8fPanZSf47oUUhCkRyjerVGOmNOmD0OPbx8aG+2W34qqNHj3KtLnitgUR+9eoVI5jBSgZyDpR1AfXsagIDiU+Sl0lE+TzlmaN7wegFomqBqsLtuRv1Oi9BvxPrRfWC1RkR3oGiFSlCUhBwUMc172r6csb9xqGwopJKcsb9xbo9BVFJRWUC4hDOOdatXS74swZAHVq9+khCWBekvHpzIwR7bNZTELUW3Xk7kZhcpod+G24hr0TfQd7CLyT8ch4YkYYNG/IH5Vs1a9bkf0GygdB5165dKZe+kw01kN6onQbiefjw4RQtKShatNClP8zrEKF05/yThv3j5SYsLIy7j0EvqDUH3zfqzYH4njp1qmjUqBGVKc5mwJ4U59CA9Kid4znGul1ENY2lvbSc58/f4mYdhgKPvUePulbp2hrqUHvvYdVCNAbZqxuNKSN0CI0eChTQtc1MlCgR5dgLG82DEC4AahCQfOC7FMEvMrVq1aKywNL6OvOyZcsyg1ipUqUoupOFP1KcRwPSo3awZyk9agd7IHI5RhqIDI8aOVbks8FS1rt3byJjaaa/B4yP4lF/+vSJPW8wcoGZDNSZ4XeIcm6PGnpo164dVT285Lw/GMlAK6roDLzo/fr143B4y5Yt5W+vk2hAetRO8iDlNqQGYosGGjRowAYY/aVBZwku76pVTbt+ob1i06ZNKfffVixcuFBMnz6djZArCug9IQCNgeP70KFD/B35fKDnEQ5H7h+CyAMMuRTn0YA01M7zLJ1uJ4ZUpGAsAzsZqDI9PDKKZ89eUb1sYqI9rK+5b4VuEyQeQJgjbK2ImioTxwF82737DPEdv6f8X2kmQAGj1/nztxlEhb7XaPkIUJZaOnSYxeVZx45dYdAbEOnoCb127UACSP1DAKmF9Ad1LOVdLQOhsC53928o3DuT8rE5+DaWaENRT/727QdiJNvAFKugXVV/V66HzjJlSsVtN2fO/Ea9Bf6u1os9FKLPnz8n4F0g51BTpkxJOfoEbJwNBd4xjPSzZ9o19ffv32dvGgI+68uXzQPhjCZ2si/oz92xY0euN9+1axcx/lXQ7xA/g2YVFKMYs3LlSipljMv86FKcRwPSUDvPs3S6nRhSkYKnevLkADLUk/ThT/CJA9ms1TpSodusXLmgkZGGktRUmTgGIpXffx9PHksYMWaNJLTzRFGmTH5i+0okRo9uQd7cZjJwWwm93spEz127Il+Yj/psb6O5n1N5UgNCKudlEhIg1+PH1/GVm1yoOrBhw2HRqVN1+iO7X/j56ZDQlmhD8eIA1Dl6cwOdDVF/V1/v4+NHxBFnNbnW1XqxlUIUDSJgnPFBKNabEN2XLv1DedOSRGV6W4wmoORpCtXC8AQEBHAv5YwZM7IBh8eI6x49ekTYgNVMNYowrr+/PwPKwBE+YsSI8FTolOdB+QnEvCLe3t76n5Hbh24gu3fvdsr9y00JIQ21/C2IFRqANw3P1jBHCWpS0GdqGWpLm4KXDWpTRQBse/78DZOqgDgEP8PzNBR45AB/aQmMtFpASwoBCYm1cvfuM2q04EMe+Ti9oda6FhECT89e7OHD81cYyDBW/V19PfZx/36w+jB/V+tFc5CZg6gdAcq4SpUqzE724+IlIm26DKJmtSqkTyKEKeApJk2dRmu9JX5dt1ZsIaO8du1aHn/8uI5ONmfOnHpPEI07IN98o/P+kXN9+vQpf8zJixcJCGSFMq875obI47FUA6lTJyY63NT00htBittYum9l2dJQx/IH6CrLRz01+LINBRSX5oyOLXqBYYaBVgSc2aDlNBSExtEJLKoExhZNQ9A4AyH9I0f+IY/e9AUA9zekDTVcd3hrCw39SN7XVcrz+oQ3lM/bQiHK68qUSfxL3u9dMrI3b95mQw25dv2aiPtfVOHihQvi8j+XqevYeVG0WHGRPEVKqn2faAVIjKcyK2/efKBohhsb6kmTDpodJ0/ETg2AxGbGjNqUKtH1yY6du4j4qqWhjrju5JXRqIHMmdNoUpGaI07RWhooA7RQw+i09e5dqP4SkLUo+eTjx69yWDxfvqyifXtTwJPWfSJyDB7+y5ch9MdoCxtsRArMGWpD2lBr74UUAchkELr/4gvrSndspRA9TiFYlFPtoLB329YtGJX86uUrUbpMaQ7demTPItxzenBIPGj/AZEpQ3oijYmcmme8hISEfCJ1bKQ+zdq4BWt1Jcc5ngbw/xZetauKNNSu+uRj2b4R3m7VapoYO7YVh6ghoCZF72RrBQ0rOnc2bSwBDxqsaWFhHznkDcOttNhEOBj3jGq5d+8Z99CG+PiUpPadgykv/rVmN6tVq4IEaENtEehPaY1p7XW2Uogi3wwCE3ymU9emA5SLBiI5PpVjeVLou1GTxqIA9TmGoB81+h+DiUwR5KknTZpEL03vmMQDAgBVtmzZiIntHPejBulHeJIpk3ETmPDGx5bzCuEJmMk2bNjAugECHIJSNpDFAICH9pSgGkXPainOoQFpqJ3jOTrlLgypSCtW9OSmHAMH/iRy5szA3nXRornIqOn6MqsVcPXqfWK8us/GHG0igebGvzDUaqpMtIgcN6410S+uYgDYlCk69PSZM9d5DnSlCq+JCNDVR49e5vz2uXO3GLUNBDYoR0GhCvKUevWKmYTvsW7wb9+9+5TQz6853Iw5IADPAVBnjjYUY2BM0QcblKLbt59gZLfhdy+vnNSh6jGFvK+wh46wuTlR68UeClHcowKBoPBRC2p/kZsGMtnQUAM0BpQ3wGaQO3fu0P5OMqAMZUhz5swhb3mBejqX/A4wHkhOACRD/h7gPZRloYwNddU///yzPr/vkgpysk1LQ+1kD9SZttO8eXmBjyIwWlrNOLT2nCdPZnHggHa7wzp1ilKP7KJGl1Wq5El0n55Gx+DRWitAV69aZdwIAZ46mpLgY0nU+yxSJBd5Rsv0lxw+rPMuteZA0wylcYZyXv3999/HaV1qckytF7zARIVs2bKFXoamMCvZjRs36MUrJ9/G09OT0eGKgNf7w4cP/FUyk+nVwhEHlLSBQhQRCxhqCGqsISiNe/jw4ecL5E+xXgPSUMf6Ryg3MHv2Nm7eYSgIDYfnBduqOXtpT+293tb1mhsf0xSir6lpNGqrmzRpwqVYqAPWktSpUzMhCjpBwXNETbYUbQrR2rVrc411p06d+N8VK1ZIVTmRBqShdqKH6apb6dWrXrRsHQQj48e3jvC97L0+wjdWXVi/fnGBT0zIiRMnCJ39gEBzM5iYw5KhRjct1FUvXryYyU5ghEAj6soCncGLBvMY9IOcNFIJRYoUoTr/mcxYhiYn1apVc2U1Od3epaF2ukcqNyQ14LgaAL832lUC8ATx8PBgoJgWSAxGCF41BMxkSm214+4u6lYWHoUoDDV6UYM7HUAyKc6lAdesHneuZ+g0u7l58zHljscSCGYOAzGoH2cAABM8SURBVKoArurTZwkRe2yjP+47CCW8iPtZmxOMyZ79awZTqQVsX7Vrj9EfRv11375LCGm9kRnFILjeza0p93aGgA2tQYPx4o8/zqun4++gDgXgq3HjyYR0Hs2lVc2bT+VzoA4tXry/HhimOcF/B0HdGS+eL4PQFAE4rXz5IdSAYQYxo60hb3I2U5oifA4BUG3UqNV8TBHDPeL6qlVHkKfVl3KXH3kI9AjdBgdrt6NU6wgoe+wBH/TftkWQhwZZScKECbk/Mgxt+/bt6dn8pje4d+/eZX7qCRMmcG4awDGch+Hevn07Pa/aTHACTxGsZK7KTAZwXaFChbg3txaFKHQGAdgOID2MleJcGpAetXM9z1i9G3f39AQoys6kH6hjbtNmOgOxlDAtSEF8fScSp7a/vkTLcMMAmi1cuIuMpnG7RCCqQek5ZUqAfjj4sdu3r8JALBjwli0rMlAN94DxAwsa1uHl5WECMlMmcSTqUPUeAW4DOxoQ55Mnb6B+zs3opaMElewk5PIztaivx/mSJb8gZHZ/9VCz31EyBBpQhKfRshL10kWKFuPu0D4NfZkyFMa4bt26AjSY+ChGBpOiNaOXl5fR/IsWLTL6Dq/RnKAkmyqXyLOMnNpsc/eJ7uNlypSjl8bPPOf16jXQ7zF+/IT0UniMv/fs+R0vzdn2jz1RGbXm//nofhYxdT9pqGNK8/K+FjUAIgzQhi5bpvvjg8HZs6fjWmc0yLAFKJY1a1puWmEoYP4aM0bXBjB37kxc5gTjhp+7datDnvxiAuT0sbhGR6IO1dojFo/abHjVjRuXZSNtTsxdb268+jiMZB8CfXl7+4jfg/aL/FQ3jXaWgYGbxdMnT4VH7lxi1Njx/Dn+1zExZ9ZMWlNjbtYRGcAn/L48e5aQXrgEcZlfUy9Pfo/lGkibNgmV7mWgCI11vPmxfLsmy5eG2kQl8oAjaODly7dM9qEQjyhrSpMmOQFontlkqLX2Y0gbCpCXUruMseDbLllyINWmntS6NFKPRTV1KIhc/P07cMh75Urj8rHwNoLa81mztlKo+hlRcxahsKquk5XWdaCg8SDWsbVrVhM72Wnh26gJfRrz0Bs3b4gECROI06dPiY3kdW8MIBIUcn0bNWnKpBxoX2mvvHkTStEDNzbU06cftXc6eb2DaSBJkgTMOJc+vaQQdbBHI5fjyhqAgQHbEpjCEib8/D4JohNbaEPN6TB16qTsZcPLfP36nVE4GC8IixZ1p17IUyhcXNLcFJFyPKqpQ7HIRo3KUI33H2Lu3O02veAMGdKE9wg9FSrUh3LHs8zvmSz1/v1/8PltlF8GMnns6JHsVSPEjdxqq2ZNRSPyopdT6VCpkiUFjHvkSxwitIk4Mj/y1yNnlBqwXwMSTGa/DuUMUaSBpk3LCbCTKXL9+kNungHebWsE4CyEuLUELSyvXLnPpy5fvqdJGoJw8caNUeudwVsF4xpaY86a1VmsX3+YcozgrDaViFCHKrPMnfut+OmnvaaTWjiCdAAErTpB24q0gzVSj3LQywh5DJISMGV1pLKq1avXEAf4DnHk8CExj0BPk4kqdNSoUQwUg4CFrEWLFpzjhqCjVn6iGy1evDh/UKbl6gJkfFhYGLO5QSe1qAMJWoQqpDDBwcGiWLFizOJmTkDDijE1atRgcJqU2KEBGfqOHc/JJVYJ1DeMa3DwGyLDKMtc12PGrCE+44fc0xkGdd26gZqNNaAghKofP37J6Gt44zDSI0c2JyPwlM/BG1+z5gB5eCUJMNaI0MbrqYcvhWl9SzF1JxphnDx5jTmx06VLwTnsY8c+g3i0HoKjUIcWKpTTaI9ffpmdQs3Xqcf2WUJ/F+Ke3BMnttPaAh/T0tHy5fuo//clCn0H84sEUgS2CkhNDCVPnjxsXPCBKHShqK3Onj27UZMO1E+jF7MUUw2MHz+eUfEw2gDkoW4auk6TJo3pYNWRMdQXvH79+pQmaEnsfQdEhQqWmfPCnVAOiHINxCEQhnNBJKNcZVF7gyD6T1R51Gi6iWRhilpNy9kjooEgenHaeTuRmFymh/5yt5BXou8gb+EXol32ZXgflGophvqnn37i0i1FBg8eLEqXLs3n4VGDKtN2Q42AunP+SVOacsArhqGFoW7bti3XTsPDvnnzppg/fz5VLFTnj5bgWpzD9TD2OXLkoBJA8y9wWnPIY9GvAelRR7/O5R3t1MD587e4yYWhwGPs0aOunTNrX24v9ae912uvKuJHo4ty1dwK0VDi0qVLHMY1JwCZIQwOpi0YbHSKAve3FJ0Gpk2bxsQxCHsrddPu7u5Wqwe6R4hcST1YfaEcGCMakIY6RtQub2qPBjw9c9hF5Wnrve2l/rT3elvXG9746KJcNbeORo0asdcMzm8wbmm1Y0SDjnHjxvEUs2fPZmT48OHDzU3pMsdBIQrp378/e9SgYoV+8N1aATZg1qxZBJZsalK3bu0cclz0akAa6ujVt7xbBDQAprBvv51HRBrDRLlyXzKBBxrJp0yZlNtQ1qlTjHJ02mxMBw5cYJKUyZPbU4ivilG5F9jDevZcSJ7FWCZYgYCda8WKfZTvHcXfletRW42yMNy/Y0dTHmXUfGNs1qxpKC++mnpY62q0kVv/7rv6JvNqqQH55F27TlE+OY04ceJf8na+EYgeYP09e9bjvPvZszepTKUrtbNMLd68eUfGbB0RiaRkZDxy/Giv2b59VQqB7uT1oq3lkycvySsNpRx1W5PbguEM5C9AdkNHx49fZaKZZMnceOz27SN5/qgQ0IgiVNutWzeT6RX+apwAjSjoRF1ZFApRxVArukiUCKWFxg1pwtOTkqMOb5w87zgakIbacZ6FXIkZDYAxLGlSNwK9FKAGDbsZFObv35FHf/r0P2rzN4DIUYYwIYpacA2MTuPGZYyMNPpOA80MQ6qIFjuXcj1qqzGPu3tnbr2pBlblyJGODSEMpp/fr2ycMTfAWFrzqteJ7zDwu3aN4r2ePXuD68iV+wPMhZeJIUNWcqnVgAEN6fMTs4+1bVtZPx1Ac+hvDYO7ZElPo+Na97x27QERSbgTqOui/vTixT0pN/yl1nCzx9RIF/RHRogbeehWrVoRen8bg51ggPHCgdA3wrYXLlxgQ71jxw6qvz5DLx9vGFQGw4xj8LZBKern52f23s5+AoC7jh07cvhfEUQX4E1D0HsaMmzYMAEudeT3weAGVLgU59CANNTO8RxdZheoOx440Fe/X5QNwZihdWO3brWt1gPKvAoX9jAaHx47Fwxv8uSJmYNcbajVPaCViWFIIWpmNK2F5sqVkf4gz6YQb1PKO+bUGkIGLFi/bnj/P/zQyWhc7dpFmZ9cna/HcS1BGgGkK/YKKB6BPt64cSN/dOhuX6IQ1d0XFKIpqLUl8s2gEUU+1dfXl3sqQ+rUqcMfQwHgSYpgQN2VK1f0qgCnt5aAMx0fS6IYd0tj5DnH04A01I73TOSKLGgAfadRSmUo+I4wb1SLYtAig3BFa62odYY3XqvWGELx5ibSkEFcNw5BydnBgxfoeB726F++DOFSJi1a0Lt3n0U4XI35AgOPEYjrIr9cwHOHh28od2h+tcCjbt26jahO9bnLlq8UZctXoIiFm9hCHt716zdErjy5xdgJk/izd89usWDeXDGDaqhTpEghen/3mSZWPa+139+//0g9yd2oMYUgTnddUxVrr3XWcQEBugYxyv7Sps1CvPWxkwwmffqkolmzAvS7aJ4G11mfI/YlDbUzP10n3BvQ3Qh9Gwq+28L9DQOHHLctMm1aIAGf3nOIHV58VAi8dYTPR49uwaxoAQFHqdZVV+OK0HeBAtnF8uW/861TpEjCe0COWW2skSdHM46ICDzsceNa8aVAh0+fvpkbehhK5sypTKaGRryoEcfWLZuZnMSHPEAf8pghHz+GcSj23N9/i8BNG/nzivopN2/eQuTMmZM6goWYzGfrgVevPpCh1u05JCTU1sudcnzt2qZc9bFVNw8fvnbKZiPW/uJJQ22tpuQ4h9AAumlt2fIXd7eCgMVr//7zTGBirSxZsoe4r2tYO5zHIUetAM5sutCGwYsW/SY6d67JXnT58gVMeM6bNSvH3NubNx9j0pYOHaoySUunTtX1d1m5Moi/61pWfg5347hhLtvcsk6dukZNPHLxaXTZQqhdLfH+Qx6rj28O1NX+o3vWZmpzOXTw95SzT0Q1u/XEbqIQ/SMoSPj4+AqUFpUtW4bKnSOv3hlYhdBQMLpNFt9/X069NKf4Xrx4YeqUdZz215+IeP6kyFJaeklzIw731dxO9PnzYFGvXm2qiPAjXnZTwCOUMGjQAGL2y0+/I9+wTiZMGCcqVqxI6aNKDq0jvFe7ubmuuXLdnTv0r6VcnKEGQCMKhDMMMowNvEWgncEHjv7UyNOaC0cjhAsu7/nz0Ws6IXldzwmZnZY90cDAP3ku1GTXq1eMPOW4JgxmV6/e5x7Q6HENxjJD3nGtp7R+Pep+Q3nOVq0qMiBMi/VLnePGXGfO3KCey7+ItGl1jUf69fPmEPSrV295vs6da5CH24moNv2ZOW3SpHbMrubvv4n2loBzze7uGVhH6DmNuTJlSsU59cePX2gaatCEYm/nzt0khPcJBuft2HGSvXSwxPn5tdHapukx+kOaJImuYQKoQPGBFx1A+Wq0t+xENKJZsmYVnQgU9Tz4KXfQApIZTFog7ACFKMBSYMvyofaYENQJA9GMvDaYtypVss6YoIGDMwoiOdhb/Phx6blM0DOTHTy4j/XTtm1L+r1ISy968XmclsSLF0cMHTqIDbqHhwe9DMa1OF5rDnks+jUgDXX061ze0UYNICeLjyLIm1orKKd68mSl5nB45/gYCjxtQ28boK5Hj1ZoXq91EPzk+BhKtmxpec7wvPg5c7qYTIn1P326Sn+8RIm8VJL2o/77+PHaOUdDL9tkUoMDAMGpgXBK/29L11lzDg05mkaQQhQI8MuXLzOyGakKpTzJmvu60hjwqWfKlInR8UuJXx3lbuEJ6qeBIt+3b194Q+V5B9GANNQO8iDkMuzTQHSyfwFhjhpsQwG6G2Vk1oi911tzD/WY6NSP+t7mvhtSiIICEx23FEE516tXryhnP5Fz3kCHKx67uflc6bg9zGTgBwdBimQliz2/MdJQx55nJVdqQQPRyf4Fj9Mer9Pe6y2oweyp6NSP2UX8d8IaCtEnT55wOBc12CuoLaa/v3+4pUfh3dcZzkcGMxlAiPC+S5UqRQ1bqorKlSs7g2qceg+yzaVTP165OakBx9MAKETRgAMNIsyFtJG7Vhi38ubNS1iEa463kWhckSVmMqXNpS3LAdoeTTnWrFljy2VybAxpQBrqGFK8vK3UgCto4NixY8wydv36dZPtgkIU4W8tARL5r7/+4lPwrgF8clUBMxkabxj2jwYzGbi+0bikSxcdtkFhJptEvb53Eco+POncuTOla6KmkU1495bnbdOADH3bpi85Oho1AO7qrl3nM382KEOBnv7xx11cMx0W9pG/o9+0wkttuDT0iQbLFwhCULqF+mtF1PzWOI65BgxYxnXLPj6liAnqHvGLz2f09LFj/lwqhbriM2eui6lTO3DpkqFY4vpGyZUhn7Y5FUYm1/eNG4+oDCqQSnGycAkbEOWoxdZiPFNznrdqNY17f0OAdFfXUWuu36DS6sSJE0wfCoYytF4EeGn9+vVUB16AgHFPOfccHoUoDDVoSBHyBivX6NGjNW/rCgejkpkMWAApjq8Baagd/xm57Ard3dMLT8/sIn/+bEzZ2bz5VBEUNEGkT5+CdYKSJXBfz57d2URHefNmIRrLzJR/K2hkpDFQi9/6wYNg5gpXSntxPQBiKN9CExAYqwYNSnDZktpIY05LXN9a9zNZMB2ILK5vGGY08tiwYbAALSkEZWn37pkyimlxnpcs+QXVYVvfjUnZC8LZqKEODQ2lOm8fsWDhIjGCPL8wWk/ffv1FsRIlRODGALGZvMDHjx+TPhsINIhAF60KFSrwRxEcGzp0qJGacMycABlOt6VyL0HzfTA3zKWO9+79mesdG0dUok8f25+rIygNpWmJE8e3majIEdYeGWuQhjoytCjniHINoN4XVKGKkcYN69QpSn94FmsaaksL0uK3hucNHnG1wHsuUqQvNfUoa8IAZjhWXeKknFO4vq3h044srm903gJpimKksRZ00cJHLVqc5+ox6u+aFKI0aNWqVaJ+A28xbMQokSGj7gUB1964fk3EpXryEaPHirr1GohRY++K4UOG0AvQZPaUEbKNSJ7VcF3v34eJBw+SiGXLBHnhps9RvQdX+J49u45hTtkr2n/HVt2AQrRdOy/i2pcUoq7wuyv3GEs1oOP4Tm60ejCFgT4UYXDDLliRuUWQqvj7d6Aa6DnEANU3Mqc2mSvyuL6fRpjrG4sCVSoY0OCB16pVhFiuvjJaazZKRagFFKL1yUM+e+a0yJvLnehDGwk04oCnGy9+fBH6IVQsXDCf6EMDxJ9H/yRO8Oqid5++3Jzj0cMHzKxlj3z69J7uRZaIJFky++ayZx3y2qjRAKJERGUXNZPHgln/DxkhatILVgrIAAAAAElFTkSuQmCC;" vertex="1" parent="1">
          <mxGeometry x="-20" y="401" width="490" height="109" as="geometry" />
        </mxCell>
      </root>
    </mxGraphModel>
  </diagram>
</mxfile>
